<?xml version="1.0" encoding="UTF-8" standalone="no"?>
<!-- Created with Inkscape (http://www.inkscape.org/) -->

<svg
   width="264mm"
   height="264mm"
   viewBox="0 0 264 264"
   version="1.1"
   id="svg1"
   inkscape:version="1.3 (0e150ed6c4, 2023-07-21)"
   sodipodi:docname="logo2_src_copy_ico_bg_none.svg"
   inkscape:export-filename="plain-svg\logo2_src_copy_svg_bg_none_128x128.svg"
   inkscape:export-xdpi="17.318182"
   inkscape:export-ydpi="17.318182"
   xmlns:inkscape="http://www.inkscape.org/namespaces/inkscape"
   xmlns:sodipodi="http://sodipodi.sourceforge.net/DTD/sodipodi-0.dtd"
   xmlns="http://www.w3.org/2000/svg"
   xmlns:svg="http://www.w3.org/2000/svg">
  <sodipodi:namedview
     id="namedview1"
     pagecolor="#ffffff"
     bordercolor="#000000"
     borderopacity="0.25"
     inkscape:showpageshadow="2"
     inkscape:pageopacity="0.0"
     inkscape:pagecheckerboard="0"
     inkscape:deskcolor="#d1d1d1"
     inkscape:document-units="mm"
     inkscape:zoom="0.5"
     inkscape:cx="503"
     inkscape:cy="525"
     inkscape:window-width="1920"
     inkscape:window-height="974"
     inkscape:window-x="2869"
     inkscape:window-y="-11"
     inkscape:window-maximized="1"
     inkscape:current-layer="layer5" />
  <defs
     id="defs1" />
  <g
     inkscape:groupmode="layer"
     id="layer5"
     inkscape:label="logo"
     transform="translate(4,4)"
     sodipodi:insensitive="true">
    <g
       inkscape:groupmode="layer"
       id="layer4"
       inkscape:label="borders">
      <g
         id="g18"
         transform="translate(-1.9998109,-1.999997)">
        <path
           style="fill:#008080;stroke-width:0.528548"
           d="m 129.70525,204.83431 c -0.15626,-0.41101 -0.48417,-7.79139 -0.36049,-8.1137 0.0417,-0.10853 0.0416,-0.28624 -1e-4,-0.39492 -0.0599,-0.15612 -0.21311,-0.11455 -0.72979,0.19796 -1.52696,0.92358 -1.5829,0.65801 -0.21062,-0.99978 l 0.88517,-1.06934 v -3.30777 c 0,-3.71003 0.003,-3.72413 1.00376,-4.62821 l 0.60234,-0.54418 0.10733,0.69453 c 0.059,0.38199 0.0726,1.98461 0.03,3.56135 -0.0885,3.28186 0.0123,3.44168 0.70559,1.11876 0.52827,-1.77007 0.53103,-2.90261 0.0107,-4.37911 -0.21182,-0.60101 -0.35526,-1.17055 -0.31876,-1.26565 0.0626,-0.16325 2.08343,-1.62717 2.24615,-1.62717 0.0418,0 0.24341,0.28543 0.44786,0.6343 1.11722,1.9064 1.19666,4.39732 0.20279,6.35795 -0.37598,0.74167 -2.14236,2.51206 -2.83369,2.84013 l -0.48322,0.2293 -0.0853,5.07295 c -0.0469,2.79013 -0.13932,5.26174 -0.20541,5.4925 -0.16968,0.59242 -0.8075,0.67423 -1.01438,0.1301 z m 2.24031,-8.15214 c -0.38806,-0.20813 -0.50898,-0.37686 -0.60005,-0.83738 -0.0632,-0.31962 -0.0589,-0.67539 0.01,-0.79802 0.10007,-0.17882 0.27603,-0.0353 0.9169,0.74806 0.43617,0.53314 0.79304,1.00954 0.79304,1.05866 0,0.18087 -0.64779,0.0817 -1.11966,-0.17132 z m -3.86027,-3.31931 c -1.24269,-0.83049 -2.07616,-1.91353 -2.58088,-3.35367 -0.2374,-0.67738 -0.28147,-1.0848 -0.24251,-2.2425 0.045,-1.33723 0.0797,-1.47895 0.63402,-2.58713 0.79322,-1.58593 1.40656,-2.25008 3.61142,-3.91063 2.96009,-2.22935 3.74011,-3.27292 3.75454,-5.02317 0.009,-1.08782 -0.42786,-2.1522 -1.26438,-3.08084 -0.29727,-0.33 -0.47507,-0.62218 -0.39511,-0.64933 0.0799,-0.0271 0.83032,-0.45676 1.66747,-0.95476 0.83715,-0.49799 1.6213,-0.93505 1.74254,-0.97125 0.39387,-0.11759 1.42989,1.50357 1.97689,3.09348 0.76303,2.21776 0.31283,4.86 -1.18562,6.95849 -0.79546,1.11403 -1.57488,1.8269 -3.86341,3.53363 -2.13321,1.59089 -2.8086,2.26961 -3.29236,3.30859 -0.39828,0.85536 -0.44455,2.20067 -0.12094,3.51564 0.27347,1.1112 0.41481,2.72698 0.23855,2.72698 -0.075,0 -0.38105,-0.16359 -0.68022,-0.36353 z m -2.63763,-11.83665 c -1.15345,-1.19532 -2.0717,-2.84168 -2.3123,-4.14581 -0.55654,-3.01653 0.7346,-5.91073 3.6748,-8.23748 0.47908,-0.37912 2.06672,-1.40377 3.52809,-2.27701 3.83882,-2.29385 4.82776,-3.36975 4.81095,-5.23394 -0.004,-0.46149 -0.0818,-1.04364 -0.17248,-1.29369 -0.31186,-0.85969 -1.40491,-1.98169 -2.96011,-3.0385 -0.1537,-0.10444 -0.2481,-0.21976 -0.20976,-0.25626 0.0384,-0.0365 1.22172,-0.55273 2.62974,-1.14717 l 2.56004,-1.08083 0.35383,0.33163 c 0.57877,0.54247 1.70587,2.13373 2.0294,2.86512 0.66638,1.50646 0.86159,3.35856 0.53795,5.10395 -0.19359,1.04403 -0.96446,2.54523 -1.84554,3.59406 -1.22507,1.45826 -2.41967,2.32175 -6.86327,4.96102 -2.71678,1.61363 -3.69874,2.60712 -4.0271,4.07439 -0.13769,0.61524 -0.12614,0.86132 0.0725,1.54451 0.12993,0.44697 0.33747,0.97694 0.46117,1.17768 0.26975,0.43776 1.3119,1.5537 1.45095,1.5537 0.0542,0 0.0633,-1.3415 0.0202,-2.98111 l -0.0784,-2.9811 0.92619,-0.58494 c 0.50939,-0.32172 0.97492,-0.58499 1.03449,-0.58506 0.0596,-7e-5 0.0902,1.38467 0.0682,3.0772 l -0.0402,3.07733 -0.9091,0.66365 c -0.98493,0.71899 -3.05131,2.31328 -3.45757,2.66763 -0.23454,0.20457 -0.32175,0.14685 -1.28266,-0.84896 z m -1.52445,-13.17966 c -1.60808,-1.40248 -2.63925,-2.89153 -3.24564,-4.68683 -0.39699,-1.17533 -0.34044,-3.38836 0.12054,-4.71733 0.5106,-1.47202 0.98647,-2.2061 2.25584,-3.47993 1.66853,-1.67439 3.40356,-2.71582 7.00462,-4.20441 2.29726,-0.94965 4.52636,-2.08398 5.46153,-2.77924 2.21224,-1.64472 2.9206,-3.67173 2.01709,-5.77201 -0.44389,-1.03186 -2.00909,-2.46248 -3.58897,-3.28041 l -1.22159,-0.63242 0.55388,-0.14591 c 0.78623,-0.20712 2.75358,-0.52535 5.01398,-0.81104 l 1.9429,-0.24555 0.69025,0.76263 c 1.55165,1.71439 2.20321,3.25434 2.30909,5.45746 0.11459,2.38453 -0.40173,4.09673 -1.82296,6.04514 -1.55552,2.13252 -4.07996,3.79503 -8.49906,5.59723 -3.81012,1.55384 -5.11297,2.25998 -6.3286,3.4301 -1.0081,0.97035 -1.27514,1.55983 -1.27903,2.82331 -0.003,0.95917 0.0409,1.12786 0.48622,1.87007 0.50511,0.8419 1.61083,1.85743 2.5366,2.32973 0.29086,0.14839 0.55412,0.26979 0.58501,0.26979 0.0309,0 0.0245,-1.75695 -0.0142,-3.90434 l -0.0704,-3.90432 1.27835,-0.64204 c 0.7031,-0.35312 1.27906,-0.62566 1.27991,-0.60566 0.001,0.02 0.0417,1.80091 0.0908,3.95757 l 0.0892,3.92122 -1.3144,0.75847 c -1.57382,0.90817 -3.43079,2.14512 -4.39098,2.92488 -0.38458,0.31232 -0.74442,0.5685 -0.79965,0.56933 -0.0552,7.3e-4 -0.56839,-0.40665 -1.14036,-0.90549 z m -1.84822,-15.65381 c -3.5274,-2.49482 -5.16996,-5.70727 -4.79634,-9.38045 0.30395,-2.98813 2.04873,-5.52713 5.20498,-7.57424 2.79329,-1.81172 7.11014,-3.13341 13.86797,-4.24594 6.61419,-1.0889 10.06859,-2.36944 11.74605,-4.35427 1.33852,-1.58376 1.23935,-3.65886 -0.22329,-4.67246 -0.88341,-0.61219 -1.45488,-0.60063 -2.65591,0.0538 -1.47149,0.80177 -2.40489,1.03579 -4.09323,1.02624 -2.12281,-0.0119 -4.83633,-0.59111 -5.33101,-1.13773 -0.72808,-0.80452 0.32051,-2.88615 2.12552,-4.2196 1.67288,-1.23582 3.70328,-1.8472 6.12334,-1.84378 3.45118,0.005 6.04831,0.98079 8.11526,3.04945 1.61895,1.62029 2.297,3.29349 2.30112,5.67836 0.003,2.15942 -0.77686,3.93222 -2.56153,5.81761 -1.32099,1.39554 -2.85201,2.44827 -4.95064,3.40405 -2.83177,1.28968 -5.69398,1.99177 -11.99414,2.94217 -5.55487,0.83796 -8.85467,1.99985 -10.77115,3.7926 -1.58129,1.47921 -2.09282,3.11725 -1.47975,4.7385 0.37197,0.9837 0.71603,1.44458 1.76252,2.36103 0.73655,0.64498 3.02325,1.9083 3.91567,2.16323 0.27681,0.0791 0.27919,0.0247 0.23107,-5.28766 l -0.0486,-5.36752 1.30723,-0.29757 c 0.71896,-0.16366 1.44881,-0.32887 1.62187,-0.36714 l 0.31464,-0.0696 v 5.29765 5.29763 l -1.29356,0.45985 c -1.47669,0.52492 -3.61756,1.60324 -5.5734,2.80717 -0.7387,0.45472 -1.39972,0.82677 -1.46894,0.82677 -0.0692,0 -0.6973,-0.40417 -1.39574,-0.89815 z m 19.20998,-32.88234 c 0.31019,-0.21726 0.38647,-0.54119 0.22593,-0.95955 -0.10155,-0.26464 -0.89742,-0.30172 -1.14576,-0.0534 -0.23533,0.23532 -0.20887,0.75006 0.052,1.01087 0.27651,0.27651 0.47539,0.27698 0.86789,0.003 z m -22.97345,16.1643 c -5.57079,-1.42977 -9.82635,-4.14173 -11.38215,-7.25355 -0.75339,-1.50689 -0.92126,-2.21172 -0.92136,-3.8684 -1e-4,-1.80904 0.31407,-2.9266 1.19259,-4.24218 1.84221,-2.75875 5.09982,-4.23462 9.36284,-4.24187 2.10206,-0.003 3.25275,0.23499 4.84365,1.00416 2.46659,1.19253 4.26318,3.93161 3.27471,4.99259 -0.62093,0.66649 -3.56962,1.22291 -5.98905,1.13013 -1.75299,-0.0672 -2.45349,-0.27354 -3.79989,-1.11917 -1.01041,-0.6346 -1.92435,-0.44475 -2.8636,0.59489 -1.63226,1.80671 -0.42276,4.38025 2.84967,6.06339 2.19235,1.12761 4.76022,1.88831 9.23622,2.73615 1.2691,0.24039 2.5277,0.48525 2.7969,0.54412 l 0.48946,0.10706 -0.76914,0.25089 c -1.36435,0.44504 -4.37374,2.01186 -5.52392,2.876 -0.61532,0.46231 -1.15024,0.83606 -1.18869,0.83058 -0.0385,-0.006 -0.76217,-0.18765 -1.60824,-0.40479 z m 1.71697,-16.1643 c 0.33813,-0.23683 0.41,-0.74592 0.143,-1.01293 -0.37501,-0.375 -1.37051,-0.024 -1.37051,0.48316 0,0.23876 0.5023,0.74747 0.73805,0.74747 0.0983,0 0.31851,-0.098 0.48946,-0.2177 z m 8.36934,10.53127 c -0.0444,-0.9422 -0.117,-4.16738 -0.16139,-7.16705 -0.0444,-2.99968 -0.17084,-9.67029 -0.28101,-14.82358 -0.11016,-5.15328 -0.20119,-10.140505 -0.2023,-11.082715 -0.002,-1.50529 -0.0348,-1.7459 -0.27234,-1.98344 -0.54134,-0.54133 -0.72442,-0.96551 -0.73004,-1.69143 -0.006,-0.83017 0.18,-1.09676 0.86492,-1.23685 l 0.45487,-0.093 -0.92653,-0.59919 c -3.11493,-2.01447 -3.48664,-6.55093 -0.74391,-9.07907 1.61356,-1.48734 4.03974,-1.92754 6.03311,-1.09466 2.84401,1.18831 4.24727,4.59492 3.12658,7.59024 -0.37142,0.9927 -1.652,2.36966 -2.69415,2.89694 -0.42863,0.21687 -0.77932,0.40778 -0.77932,0.42424 0,0.0165 0.27983,0.03 0.62185,0.03 0.92373,0 1.09631,0.20945 1.03005,1.25004 -0.0483,0.7586 -0.11707,0.9341 -0.55663,1.42065 l -0.50151,0.55511 -0.0185,2.57079 c -0.0102,1.41395 -0.0802,5.654385 -0.15561,9.423215 -0.0754,3.76881 -0.20411,10.59492 -0.28599,15.16911 -0.0819,4.5742 -0.17285,8.34069 -0.20214,8.36999 -0.0511,0.0512 -3.26242,0.85195 -3.44854,0.85994 -0.0499,0.003 -0.12711,-0.767 -0.17148,-1.70921 z m -11.05524,-16.40682 c -0.34584,-0.34584 -0.26745,-0.65005 0.45228,-1.75508 1.28083,-1.96652 2.40458,-4.12504 2.40458,-4.61874 0,-0.32047 -0.30777,-0.0281 -0.91583,0.87002 -1.6836,2.48672 -3.55303,4.16732 -5.5732,5.01028 -0.71278,0.29742 -1.07115,0.35549 -2.18143,0.35343 -1.56745,-0.003 -2.14425,-0.20936 -2.21153,-0.79159 -0.0362,-0.31291 0.16858,-0.60446 1.15619,-1.64659 2.20854,-2.33041 4.49434,-5.45282 3.99181,-5.45282 -0.0797,0 -0.94602,0.80738 -1.92523,1.79418 -2.92882,2.95152 -4.67008,4.15448 -6.80922,4.70419 -1.38747,0.35655 -3.06889,0.21477 -4.44566,-0.37485 -0.94352,-0.40408 -0.91117,-0.75852 0.13985,-1.53188 2.78548,-2.04963 3.61694,-2.72669 5.06295,-4.12282 1.52551,-1.47288 2.30106,-2.42665 1.97322,-2.42665 -0.0807,0 -0.28876,0.12178 -0.4624,0.27064 -3.70235,3.17382 -7.0782,5.27191 -9.340423,5.80511 -1.15623,0.27252 -3.30546,0.27345 -4.457319,0.002 -1.22251,-0.28817 -2.511125,-0.98842 -2.620445,-1.42398 -0.108759,-0.43334 -0.03917,-0.49162 1.139058,-0.95354 2.889866,-1.13299 6.735326,-3.48507 9.546349,-5.83902 0.33523,-0.28072 0.53282,-0.53853 0.45135,-0.5889 -0.15105,-0.0933 -0.30017,-0.0152 -2.935523,1.5393 -5.17293,3.05121 -8.780951,4.23275 -11.868157,3.88651 -2.060146,-0.23106 -3.929155,-0.96939 -5.135839,-2.02888 -0.365544,-0.32095 -0.480371,-0.52428 -0.448939,-0.79496 0.03911,-0.33692 0.118554,-0.37632 1.078824,-0.53522 3.740729,-0.61897 7.816931,-2.29107 11.765284,-4.826215 1.621507,-1.04114 1.475357,-1.33748 -0.23495,-0.47641 -1.664317,0.8379 -5.337688,2.356045 -6.952105,2.873185 -4.746539,1.52045 -9.242827,1.4807 -12.528196,-0.11075 -2.061004,-0.998375 -4.009844,-2.766475 -3.900381,-3.538665 0.04318,-0.30464 0.110994,-0.32414 1.234381,-0.3551 5.679008,-0.15651 9.10302,-0.60474 12.725887,-1.66593 3.040224,-0.89051 4.953868,-1.7082 11.747671,-5.01968 7.557933,-3.68395 10.289653,-4.76917 13.040143,-5.18043 1.14117,-0.17063 1.60709,-0.17996 2.46799,-0.0494 3.50567,0.5314 5.37572,2.42099 6.03776,6.10084 0.35381,1.96665 0.47934,2.34832 1.05362,3.20357 0.52678,0.78452 1.22953,1.40388 2.09231,1.84404 0.68178,0.3478 2.45314,0.72989 3.38382,0.72989 0.9851,0 1.18305,0.20335 1.30989,1.34555 0.16701,1.5039 0.14195,7.771575 -0.0345,8.611535 -0.0856,0.40758 -0.35906,1.18515 -0.60771,1.72791 -1.29426,2.8251 -3.16213,4.69946 -5.35957,5.37816 -1.13959,0.35197 -2.9804,0.3842 -3.30673,0.0578 z m 4.58107,-7.60355 c 0.67653,-0.74882 1.60063,-2.81789 1.2502,-2.79917 -0.0865,0.005 -2.23737,3.03802 -2.3856,3.36451 -0.0223,0.049 0.11847,0.0589 0.31279,0.0217 0.19431,-0.0372 0.56449,-0.30131 0.82261,-0.58702 z m -5.03337,-1.01333 c 0.10127,-0.10085 0.39955,-0.37256 0.66283,-0.60381 0.75661,-0.66453 1.75985,-2.02281 2.15542,-2.91825 0.1996,-0.45182 0.32878,-0.85562 0.28707,-0.89734 -0.0417,-0.0417 -0.0961,-0.0496 -0.12086,-0.0176 -0.65855,0.85247 -2.27267,2.69056 -3.08565,3.51379 -0.58561,0.59299 -1.06474,1.12039 -1.06474,1.17201 0,0.15514 0.96764,-0.0514 1.16593,-0.24882 z m -5.73893,-1.73783 c 1.36371,-0.68843 4.32399,-3.37197 4.78018,-4.333305 0.12994,-0.27384 0.20781,-0.52634 0.17304,-0.56112 -0.0348,-0.0348 -0.2764,0.1434 -0.53693,0.39594 -0.97961,0.949555 -3.85617,3.374385 -4.55,3.835505 -0.80566,0.53541 -1.04271,0.88893 -0.59608,0.88893 0.15523,0 0.48364,-0.10168 0.72979,-0.22595 z m -5.13742,-2.14072 c 0.20913,-0.0151 1.96691,-1.08332 2.70835,-1.645985 1.68738,-1.28048 3.42489,-3.10726 3.18427,-3.34788 -0.0459,-0.0459 -0.82619,0.50754 -1.73388,1.22994 -2.23785,1.78104 -3.71176,2.871765 -4.15124,3.072015 -0.20127,0.0917 -0.36594,0.21531 -0.36594,0.2747 0,0.0593 -0.13418,0.15055 -0.29816,0.2026 -0.21453,0.0681 -0.2485,0.12535 -0.12111,0.20408 0.0974,0.0602 0.27876,0.0896 0.40306,0.0654 0.12428,-0.0242 0.29289,-0.0488 0.37465,-0.0548 z m -4.17126,-3.119675 c 0.47959,-0.19414 1.41095,-0.65959 2.06968,-1.03434 1.88328,-1.07135 5.27027,-3.70362 5.04955,-3.92434 -0.11197,-0.11197 -0.83021,0.28187 -2.60718,1.4296 -1.41363,0.91304 -5.17371,3.09225 -6.0483,3.50538 -1.277733,0.60358 0.053,0.62409 1.53625,0.0237 z m -3.709653,-3.23395 c 2.612383,-0.98447 8.804103,-4.53925 7.942533,-4.55995 -0.11509,-0.003 -1.46808,0.59088 -3.00667,1.31922 -1.53858,0.72833 -3.990553,1.85346 -5.448833,2.50027 -1.45827,0.64682 -2.672149,1.23825 -2.697505,1.31432 -0.07098,0.21293 2.199605,-0.19292 3.210475,-0.57386 z m 41.961453,18.861425 c -2.32021,-0.65083 -4.07446,-2.26284 -5.46919,-5.02576 -0.94857,-1.87908 -1.04501,-2.59948 -0.9375,-7.00329 0.0507,-2.076695 0.1548,-4.014555 0.23132,-4.306375 0.15511,-0.59149 0.50264,-0.79636 1.35779,-0.80039 1.51728,-0.007 3.46197,-0.72888 4.55399,-1.69012 0.75618,-0.66561 1.54467,-2.19287 1.68924,-3.27195 0.23213,-1.73264 0.66307,-3.16002 1.1913,-3.94583 1.11694,-1.66159 2.91357,-2.71698 5.10725,-3.00016 3.00766,-0.38824 6.56301,0.82425 15.45916,5.27212 4.89842,2.44909 7.60239,3.62826 10.38853,4.53031 3.89208,1.26012 6.82495,1.75842 11.70087,1.98802 1.88442,0.0887 3.47965,0.20864 3.54498,0.26646 0.32478,0.28743 -0.55394,1.48471 -1.79625,2.44743 -3.1948,2.475795 -7.77666,3.181305 -12.65663,1.948835 -2.38334,-0.60193 -5.42477,-1.758465 -8.38811,-3.189685 -0.88311,-0.42651 -1.63328,-0.74785 -1.66705,-0.71408 -0.24519,0.2452 1.79014,1.5946 4.48411,2.972915 2.79073,1.42782 4.83951,2.11482 8.71756,2.92317 1.82987,0.38142 -0.69483,2.43563 -3.84574,3.12908 -1.50812,0.3319 -2.92238,0.30667 -4.82466,-0.0861 -2.00829,-0.41465 -4.59869,-1.5888 -8.45029,-3.8303 -2.54975,-1.48387 -3.16315,-1.73007 -2.44881,-0.98287 1.49419,1.5629 7.03835,5.07656 9.48823,6.01325 1.37662,0.52634 1.538,0.66041 1.35963,1.12955 -0.15084,0.39677 -1.26054,0.95145 -2.60298,1.30111 -1.05451,0.27467 -3.09081,0.27481 -4.26809,2.9e-4 -1.88455,-0.43943 -4.7094,-2.07454 -8.03865,-4.65297 -2.51448,-1.94741 -2.71216,-1.6528 -0.41811,0.62312 1.40156,1.39051 3.54266,3.14754 5.19054,4.25954 0.57473,0.38781 1.08151,0.80037 1.12618,0.91678 0.23029,0.60011 -1.26117,1.1696 -3.32465,1.26948 -2.94691,0.14264 -4.37187,-0.62834 -8.33265,-4.50835 -1.13789,-1.11469 -2.1155,-2.0267 -2.17247,-2.0267 -0.50628,0 1.74893,3.09089 3.83688,5.25867 1.55797,1.61755 1.65428,1.89697 0.8055,2.33684 -0.40584,0.21033 -0.74173,0.24457 -1.96626,0.20041 -1.30809,-0.0472 -1.58645,-0.10457 -2.43666,-0.50242 -1.75955,-0.82339 -3.40081,-2.43429 -5.5228,-5.42062 -0.42856,-0.60313 -0.49187,-0.64682 -0.53426,-0.36866 -0.0264,0.17355 0.11187,0.66495 0.30739,1.092 0.38961,0.85103 1.95265,3.48414 2.52189,4.24839 0.69896,0.93842 0.39779,1.29357 -1.15235,1.35889 -0.65791,0.0277 -1.36053,-0.0345 -1.80818,-0.16004 z m -0.17684,-7.00221 c 0,-0.0426 -0.1902,-0.27861 -0.42266,-0.52442 -0.39841,-0.42127 -0.8127,-1.005 -1.75631,-2.47466 -0.3659,-0.56987 -0.40866,-0.59815 -0.45279,-0.29946 -0.0522,0.35333 0.61485,1.82684 1.11463,2.4622 0.44993,0.57199 1.51713,1.16031 1.51713,0.83634 z m 4.89457,-1.44338 c 0,-0.0673 -0.58569,-0.71869 -1.30153,-1.44745 -0.71584,-0.72875 -1.70491,-1.81266 -2.19792,-2.40869 -0.93043,-1.12482 -1.22516,-1.20096 -0.69265,-0.17892 0.91338,1.75301 2.66725,3.7549 3.49876,3.9935 0.63643,0.18264 0.69334,0.18605 0.69334,0.0416 z m 5.45396,-1.95995 c 0,-0.0594 -0.29891,-0.30285 -0.66426,-0.54096 -0.75457,-0.49179 -2.98461,-2.36496 -4.44009,-3.729545 -0.5384,-0.50478 -1.02799,-0.91806 -1.08797,-0.91841 -0.54458,-0.003 2.75995,3.668425 4.15007,4.611065 0.96014,0.65106 2.04225,0.95725 2.04225,0.57785 z m 3.69,-3.32039 c -0.9757,-0.651585 -2.36597,-1.637625 -3.08948,-2.191205 -1.78283,-1.36405 -2.26923,-1.69183 -2.36639,-1.59467 -0.2204,0.22039 1.95447,2.32369 3.75852,3.634875 1.13829,0.8273 2.97972,1.59018 3.36144,1.3926 0.0605,-0.0312 -0.68839,-0.59001 -1.66409,-1.2416 z m 7.14098,-1.567065 c -0.0731,-0.0646 -0.3531,-0.20124 -0.62231,-0.30369 -0.82882,-0.31541 -3.3691,-1.73318 -5.40382,-3.01595 -2.47553,-1.56071 -3.39878,-2.07169 -3.51959,-1.94799 -0.26593,0.2723 3.91494,3.32908 6.12652,4.47936 0.87374,0.45444 2.29263,0.8891 2.92975,0.8975 0.34724,0.004 0.56358,-0.0437 0.48945,-0.10923 z m 4.41211,-3.08958 c 0,-0.0717 -0.14159,-0.17468 -0.31465,-0.22878 -0.38016,-0.11883 -3.70712,-1.58149 -5.06939,-2.22869 -2.74555,-1.30439 -5.25884,-2.44652 -5.38362,-2.44652 -0.34322,0 -0.0608,0.27604 0.99474,0.97242 1.3668,0.90171 5.37259,2.97813 6.50913,3.37405 1.54948,0.53977 3.26379,0.83261 3.26379,0.55752 z"
           id="path14"
           inkscape:export-filename="ammims-logo-2.png"
           inkscape:export-xdpi="96"
           inkscape:export-ydpi="96" />
        <ellipse
           style="fill:#00a0a0;fill-opacity:1;stroke-width:0.252773"
           id="path18"
           cx="131.18219"
           cy="86.059517"
           rx="4.2499266"
           ry="4.4944487" />
        <text
           xml:space="preserve"
           style="font-size:9.17222px;font-family:Montserrat;-inkscape-font-specification:Montserrat;fill:#008080;fill-opacity:1;stroke-width:0.264583"
           x="52.531128"
           y="75.109779"
           id="text16"><tspan
             sodipodi:role="line"
             id="tspan16"
             style="font-style:normal;font-variant:normal;font-weight:normal;font-stretch:normal;font-size:9.17222px;font-family:Arial;-inkscape-font-specification:Arial;fill:#008080;stroke-width:0.264583"
             x="52.531128"
             y="75.109779">INSTITUTE OF MEDICAL SCIENCES</tspan></text>
        <text
           xml:space="preserve"
           style="font-style:normal;font-variant:normal;font-weight:bold;font-stretch:normal;font-size:12.7px;font-family:Arial;-inkscape-font-specification:'Arial Bold';fill:#008080;fill-opacity:1;stroke-width:0.264583"
           x="46.622105"
           y="61.898155"
           id="text15"><tspan
             sodipodi:role="line"
             id="tspan15"
             style="font-style:normal;font-variant:normal;font-weight:bold;font-stretch:normal;font-size:12.7px;font-family:Arial;-inkscape-font-specification:'Arial Bold';fill:#008080;stroke-width:0.264583"
             x="46.622105"
             y="61.898155">ABDUL MANAN MEMORIAL</tspan></text>
        <path
           id="rect16"
           style="fill:#008080;fill-opacity:1;stroke-width:0.446181"
           d="M 2.3145528,27.475765 12.755254,46.277718 H 219.60264 l 10.44122,-18.801953 z" />
        <path
           id="rect16-6"
           style="fill:#008080;fill-opacity:1;stroke-width:0.368752"
           d="M 2.3145518,27.475764 116.17944,232.52371 126.93232,213.159 23.821244,27.475765 Z" />
        <path
           id="rect16-6-2"
           style="fill:#008080;fill-opacity:1;stroke-width:0.368752"
           d="M 236.17837,27.475765 122.31347,232.52423 h 21.50671 L 257.68507,27.475767 Z" />
      </g>
    </g>
  </g>
</svg>
